<svg width="65" height="65" viewBox="0 0 65 65" fill="none" xmlns="http://www.w3.org/2000/svg">
<path d="M56.7665 29.9667L35.0332 8.23335C34.3665 7.56669 33.4332 7.16669 32.4998 7.16669C31.5665 7.16669 30.6332 7.56669 29.9665 8.23335L25.2998 12.9L30.7665 18.3667C31.2998 18.1 31.8332 17.9667 32.4998 17.9667C34.7665 17.9667 36.4998 19.7 36.4998 21.9667C36.4998 22.6334 36.3665 23.1667 36.0998 23.7L41.4332 29.0334C41.9665 28.7667 42.4998 28.6334 43.1665 28.6334C45.4332 28.6334 47.1665 30.3667 47.1665 32.6334C47.1665 34.9 45.4332 36.6334 43.1665 36.6334C40.8998 36.6334 39.1665 34.9 39.1665 32.6334C39.1665 31.9667 39.2998 31.4334 39.5665 30.9L34.2332 25.5667C34.0998 25.5667 33.9665 25.7 33.8332 25.7V39.5667C35.4332 40.1 36.4998 41.5667 36.4998 43.3C36.4998 45.5667 34.7665 47.3 32.4998 47.3C30.2332 47.3 28.4998 45.5667 28.4998 43.3C28.4998 41.5667 29.5665 40.1 31.1665 39.5667V25.5667C29.5665 25.0334 28.4998 23.5667 28.4998 21.8334C28.4998 21.1667 28.6332 20.6334 28.8998 20.1L23.4332 14.6334L8.23317 29.9667C7.5665 30.6334 7.1665 31.5667 7.1665 32.5C7.1665 33.4334 7.5665 34.3667 8.23317 35.0334L29.9665 56.7667C30.6332 57.4334 31.5665 57.8334 32.4998 57.8334C33.4332 57.8334 34.3665 57.4334 35.0332 56.7667L56.7665 35.0334C57.4332 34.3667 57.8332 33.4334 57.8332 32.5C57.8332 31.5667 57.4332 30.6334 56.7665 29.9667Z" fill="#F4511E"/>
</svg>
