<svg width="70" height="64" viewBox="0 0 70 64" fill="none" xmlns="http://www.w3.org/2000/svg">
<g clip-path="url(#clip0_26_377)">
<path d="M34.9848 38.7725C38.6571 38.7725 41.6342 35.7404 41.6342 32C41.6342 28.2597 38.6571 25.2275 34.9848 25.2275C31.3125 25.2275 28.3354 28.2597 28.3354 32C28.3354 35.7404 31.3125 38.7725 34.9848 38.7725Z" fill="#087EA4"/>
<path d="M34.9848 47.2381C53.3465 47.2381 68.2316 40.4158 68.2316 32C68.2316 23.5842 53.3465 16.7619 34.9848 16.7619C16.6231 16.7619 1.73804 23.5842 1.73804 32C1.73804 40.4158 16.6231 47.2381 34.9848 47.2381Z" stroke="#087EA4" stroke-width="3"/>
<path d="M22.0282 39.6191C31.209 55.8152 44.4525 65.5336 51.6082 61.3257C58.764 57.1179 57.1223 40.5771 47.9415 24.381C38.7607 8.18481 25.5172 -1.5336 18.3615 2.67429C11.2057 6.88217 12.8474 23.4229 22.0282 39.6191Z" stroke="#087EA4" stroke-width="3"/>
<path d="M22.028 24.381C12.8472 40.5771 11.2055 57.1179 18.3613 61.3257C25.5171 65.5336 38.7605 55.8152 47.9413 39.6191C57.1222 23.4229 58.7638 6.88217 51.6081 2.67429C44.4523 -1.5336 31.2089 8.18481 22.028 24.381Z" stroke="#087EA4" stroke-width="3"/>
</g>
<defs>
<clipPath id="clip0_26_377">
<rect width="69.8182" height="64" fill="white" transform="translate(0.0756836)"/>
</clipPath>
</defs>
</svg>
