<svg width="65" height="63" viewBox="0 0 65 63" fill="none" xmlns="http://www.w3.org/2000/svg">
<rect width="64" height="63" transform="translate(0.5)" fill="white"/>
<path d="M21.1638 37.2602L16.1763 39.1727L20.7959 40.9359L26.1513 39.1727L21.1638 37.2602ZM13.6659 39.6508L13.4988 48.2578L20.7959 51.1269V42.191L13.6659 39.6508ZM28.6617 39.6508L22.0672 41.8926V50.3203L28.6617 47.9293V39.6508ZM36.5275 12.873L31.5068 14.7855L36.1596 16.5492L41.515 14.7855L36.5275 12.873ZM29.5651 15.4133V24.0203L35.7912 25.6344L35.992 17.8039L29.5651 15.4133ZM43.4899 15.8914L37.5985 18.1328V26.5906L43.4899 24.1996V15.8914ZM12.9462 24.9871L7.95919 26.9L12.5783 28.6633L17.9338 26.9L12.9462 24.9871ZM5.44837 27.3781L5.28125 35.9852L12.5783 38.8543V29.9184L5.44837 27.3781ZM20.4437 27.3781L13.8501 29.6195V38.0469L20.4437 35.6562V27.3781ZM29.013 24.6684L24.0255 26.5812L28.6446 28.3445L34.0001 26.5812L29.013 24.6684ZM21.5156 27.0594L21.348 35.6668L28.6451 38.5359V29.5996L21.5156 27.0594ZM36.5109 27.0594L29.9169 29.3008V37.7289L36.5109 35.3379V27.0594ZM52.2206 12.873L47.2336 14.7855L51.8531 16.5492L57.2086 14.7855L52.2206 12.873ZM44.7232 15.2641L44.5561 23.8711L51.8531 26.7398V17.8039L44.7232 15.2641ZM59.7185 15.2641L53.1249 17.5055V25.9332L59.7185 23.5426V15.2641Z" fill="#F7A80D"/>
</svg>
