<svg width="31" height="65" viewBox="0 0 31 65" fill="none" xmlns="http://www.w3.org/2000/svg">
<g clip-path="url(#clip0_26_416)">
<path d="M21.2076 7.63325C18.5096 4.44632 16.1864 1.20959 15.7118 0.537347C15.6618 0.487551 15.5868 0.487551 15.5369 0.537347C15.0622 1.20959 12.739 4.44632 10.041 7.63325C-13.1164 37.0376 13.6883 56.8813 13.6883 56.8813L13.9131 57.0306C14.1129 60.0932 14.6126 64.5 14.6126 64.5H15.6118H16.6111C16.6111 64.5 17.1107 60.118 17.3105 57.0306L17.5353 56.8565C17.5603 56.8565 44.3649 37.0376 21.2076 7.63325ZM15.6118 56.433C15.6118 56.433 14.4127 55.4123 14.088 54.8893V54.8397L15.5369 22.8209C15.5369 22.7213 15.6868 22.7213 15.6868 22.8209L17.1357 54.8397V54.8893C16.8109 55.4123 15.6118 56.433 15.6118 56.433Z" fill="#00684A"/>
</g>
<defs>
<clipPath id="clip0_26_416">
<rect width="29.7674" height="64" fill="white" transform="translate(0.616211 0.5)"/>
</clipPath>
</defs>
</svg>
