<svg width="55" height="57" viewBox="0 0 55 57" fill="none" xmlns="http://www.w3.org/2000/svg">
<g clip-path="url(#clip0_26_542)">
<path d="M20.4981 44.0812C20.4981 44.0812 18.4346 45.3479 21.9667 45.7766C26.2458 46.2919 28.4328 46.218 33.1484 45.2759C33.1484 45.2759 34.3882 46.0964 36.1196 46.8072C25.5485 51.5895 12.1951 46.5302 20.4981 44.0812Z" fill="#5382A1"/>
<path d="M19.2066 37.8406C19.2066 37.8406 16.8921 39.6491 20.4269 40.035C24.998 40.5328 28.6078 40.5735 34.8543 39.3038C34.8543 39.3038 35.7183 40.2284 37.0768 40.734C24.2957 44.679 10.0599 41.0451 19.2066 37.8406Z" fill="#5382A1"/>
<path d="M30.0961 27.2546C32.7008 30.42 29.4117 33.2685 29.4117 33.2685C29.4117 33.2685 36.0256 29.6646 32.9881 25.1516C30.1513 20.943 27.9758 18.8519 39.753 11.642C39.753 11.642 21.2666 16.5156 30.0961 27.2546Z" fill="#E76F00"/>
<path d="M44.0774 48.6972C44.0774 48.6972 45.6045 50.0253 42.3956 51.0528C36.2939 53.004 16.9994 53.5932 11.6395 51.1306C9.7127 50.2458 13.3259 49.018 14.4625 48.7603C15.6478 48.489 16.3252 48.5396 16.3252 48.5396C14.1825 46.9462 2.47536 51.6681 10.3786 53.0204C31.9318 56.7099 49.6681 51.359 44.0774 48.6972Z" fill="#5382A1"/>
<path d="M21.4909 31.3747C21.4909 31.3747 11.6765 33.8353 18.0154 34.7288C20.6919 35.1071 26.0274 35.0215 30.9972 34.5819C35.0589 34.2203 39.1372 33.4514 39.1372 33.4514C39.1372 33.4514 37.7051 34.0988 36.6689 34.8456C26.7025 37.6124 7.4494 36.3252 12.9921 33.4951C17.6796 31.1034 21.4909 31.3747 21.4909 31.3747Z" fill="#5382A1"/>
<path d="M39.0967 41.7624C49.2279 36.2054 44.5437 30.8651 41.2741 31.5845C40.4727 31.7606 40.1154 31.9131 40.1154 31.9131C40.1154 31.9131 40.4129 31.4212 40.9811 31.2083C47.4494 28.8079 52.4239 38.2878 38.8931 42.0425C38.8931 42.0426 39.0498 41.8947 39.0967 41.7624Z" fill="#5382A1"/>
<path d="M32.9885 0C32.9885 0 38.5993 5.92456 27.6668 15.0349C18.9001 22.3429 25.6677 26.5097 27.6632 31.2705C22.5459 26.397 18.7905 22.1068 21.3099 18.1138C25.0078 12.2526 35.2523 9.41081 32.9885 0Z" fill="#E76F00"/>
<path d="M22.486 56.8208C32.2107 57.4779 47.1441 56.4562 47.4978 51.5991C47.4978 51.5991 46.818 53.4404 39.4608 54.9027C31.1606 56.5515 20.9234 56.359 14.8516 55.3023C14.8517 55.3021 16.0945 56.3882 22.486 56.8208Z" fill="#5382A1"/>
</g>
<defs>
<clipPath id="clip0_26_542">
<rect width="54" height="57" fill="white" transform="translate(0.5)"/>
</clipPath>
</defs>
</svg>
