<svg width="58" height="65" viewBox="0 0 58 65" fill="none" xmlns="http://www.w3.org/2000/svg">
<g clip-path="url(#clip0_26_497)">
<g clip-path="url(#clip1_26_497)">
<path d="M28.7267 0.71875C14.2914 0.718751 15.1928 6.86895 15.1928 6.86895L15.2089 13.2405H28.9842V15.1535H9.7374C9.7374 15.1535 0.500244 14.1243 0.500244 28.4342C0.500243 42.744 8.56264 42.2365 8.56264 42.2365H13.3743V35.5962C13.3743 35.5962 13.115 27.6753 21.308 27.6753H34.9706C34.9706 27.6753 42.6468 27.7972 42.6468 20.3867V8.13377C42.6468 8.13377 43.8122 0.71875 28.7267 0.71875ZM21.131 5.00333C22.5015 5.00333 23.6092 6.09162 23.6092 7.43812C23.6092 8.78461 22.5015 9.8729 21.131 9.8729C19.7604 9.8729 18.6527 8.78461 18.6527 7.43812C18.6527 6.09162 19.7604 5.00333 21.131 5.00333Z" fill="url(#paint0_linear_26_497)"/>
<path d="M29.1365 56.2931C43.5719 56.2931 42.6704 50.1429 42.6704 50.1429L42.6543 43.7713H28.8791V41.8583H48.1258C48.1258 41.8583 57.363 42.8875 57.363 28.5777C57.363 14.2678 49.3006 14.7753 49.3006 14.7753H44.4889V21.4156C44.4889 21.4156 44.7482 29.3366 36.5552 29.3366H22.8926C22.8926 29.3366 15.2164 29.2147 15.2164 36.6251V48.8781C15.2164 48.8781 14.051 56.2931 29.1365 56.2931ZM36.7322 52.0085C35.3617 52.0085 34.254 50.9202 34.254 49.5737C34.254 48.2272 35.3617 47.1389 36.7322 47.1389C38.1028 47.1389 39.2105 48.2272 39.2105 49.5737C39.2105 50.9202 38.1028 52.0085 36.7322 52.0085Z" fill="url(#paint1_linear_26_497)"/>
</g>
</g>
<defs>
<linearGradient id="paint0_linear_26_497" x1="5.96487" y1="5.71751" x2="33.6502" y2="33.6161" gradientUnits="userSpaceOnUse">
<stop stop-color="#387EB8"/>
<stop offset="1" stop-color="#366994"/>
</linearGradient>
<linearGradient id="paint1_linear_26_497" x1="23.2611" y1="23.3176" x2="53.0166" y2="51.9485" gradientUnits="userSpaceOnUse">
<stop stop-color="#FFE052"/>
<stop offset="1" stop-color="#FFC331"/>
</linearGradient>
<clipPath id="clip0_26_497">
<rect width="56.32" height="64" fill="white" transform="translate(0.840088 0.5)"/>
</clipPath>
<clipPath id="clip1_26_497">
<rect width="57" height="56" fill="white" transform="translate(0.500244 0.5)"/>
</clipPath>
</defs>
</svg>
