<svg width="43" height="65" viewBox="0 0 43 65" fill="none" xmlns="http://www.w3.org/2000/svg">
<g clip-path="url(#clip0_26_432)">
<path d="M21.5 32.5C21.5 29.671 22.6238 26.9579 24.6242 24.9575C26.6246 22.9571 29.3377 21.8333 32.1667 21.8333C34.9956 21.8333 37.7087 22.9571 39.7091 24.9575C41.7095 26.9579 42.8333 29.671 42.8333 32.5C42.8333 35.329 41.7095 38.0421 39.7091 40.0425C37.7087 42.0428 34.9956 43.1666 32.1667 43.1666C29.3377 43.1666 26.6246 42.0428 24.6242 40.0425C22.6238 38.0421 21.5 35.329 21.5 32.5Z" fill="#1ABCFE"/>
<path d="M0.166748 53.8334C0.166748 51.0044 1.29055 48.2913 3.29094 46.2909C5.29133 44.2905 8.00444 43.1667 10.8334 43.1667H21.5001V53.8334C21.5001 56.6623 20.3763 59.3754 18.3759 61.3758C16.3755 63.3762 13.6624 64.5 10.8334 64.5C8.00444 64.5 5.29133 63.3762 3.29094 61.3758C1.29055 59.3754 0.166748 56.6623 0.166748 53.8334Z" fill="#0ACF83"/>
<path d="M21.5 0.5V21.8333H32.1667C34.9956 21.8333 37.7087 20.7095 39.7091 18.7091C41.7095 16.7087 42.8333 13.9956 42.8333 11.1667C42.8333 8.33769 41.7095 5.62458 39.7091 3.62419C37.7087 1.62381 34.9956 0.5 32.1667 0.5L21.5 0.5Z" fill="#FF7262"/>
<path d="M0.166748 11.1667C0.166748 13.9956 1.29055 16.7087 3.29094 18.7091C5.29133 20.7095 8.00444 21.8333 10.8334 21.8333H21.5001V0.5H10.8334C8.00444 0.5 5.29133 1.62381 3.29094 3.62419C1.29055 5.62458 0.166748 8.33769 0.166748 11.1667Z" fill="#F24E1E"/>
<path d="M0.166748 32.5C0.166748 35.329 1.29055 38.0421 3.29094 40.0425C5.29133 42.0428 8.00444 43.1666 10.8334 43.1666H21.5001V21.8333H10.8334C8.00444 21.8333 5.29133 22.9571 3.29094 24.9575C1.29055 26.9579 0.166748 29.671 0.166748 32.5Z" fill="#A259FF"/>
</g>
<defs>
<clipPath id="clip0_26_432">
<rect width="42.6667" height="64" fill="white" transform="translate(0.166748 0.5)"/>
</clipPath>
</defs>
</svg>
