<svg width="63" height="62" viewBox="0 0 63 62" fill="none" xmlns="http://www.w3.org/2000/svg">
<path d="M22.1468 48.7426C20.0979 47.1297 17.9134 45.5845 16.4167 43.4097C13.2731 39.5734 10.8512 35.1269 9.19948 30.4575C8.19682 27.4205 7.85776 24.1655 6.56448 21.2447C5.21792 19.1231 6.79698 16.8078 9.11713 16.1345C10.1489 15.9359 11.9701 14.9575 9.77588 15.6598C7.80932 17.1033 7.62042 14.3472 9.63542 14.1728C11.011 13.9887 11.5196 12.865 11.0498 11.8478C9.57245 10.8839 14.6342 9.82312 12.0864 8.38452C9.43198 5.52187 15.7967 4.96968 14.2273 8.22468C13.8543 10.7241 18.6739 7.76452 17.5549 10.6514C18.6932 12.0367 21.8174 10.9662 21.7351 12.9134C23.3917 13.0297 23.9632 14.4198 25.5132 14.5264C27.1262 15.253 30.047 15.8294 30.5943 17.6458C28.9959 18.91 25.2904 15.0301 25.116 18.537C25.6004 23.715 25.4745 29.048 27.3684 33.9789C28.2645 36.9626 30.4345 39.3119 32.3962 41.6369C34.2756 43.9134 36.8137 45.5167 39.4099 46.8681C41.6817 47.9386 44.1326 48.6506 46.6126 49.0962C47.6153 48.3261 49.3929 45.4731 50.9574 46.6744C51.0349 48.0306 47.8478 49.5031 50.8073 49.3578C52.5462 48.8347 53.7523 50.6995 55.186 49.0139C56.5035 50.5784 60.6692 48.0161 59.7295 51.2081C58.4604 52.0267 56.6101 51.5326 55.3362 52.6612C53.2389 51.615 51.5726 53.5961 49.2524 53.3491C46.6756 53.8092 44.0551 53.9981 41.4395 53.9981C37.1528 53.6591 32.774 53.5186 28.7004 52.0267C26.4045 51.3583 24.1618 50.0505 22.1468 48.7426V48.7426ZM25.7651 50.312C28.0078 51.2808 30.202 52.3028 32.6578 52.6128C36.557 53.1553 40.587 53.9884 44.5007 53.228C42.7279 52.4287 40.897 53.538 39.1339 52.6564C37.0171 53.1117 34.7454 52.5401 32.5948 52.2592C30.1487 51.1694 27.5089 50.4186 25.2178 49.0042C22.3551 47.958 26.6999 50.3459 27.4701 50.5397C29.2574 51.5569 25.5035 50.0166 24.9707 49.5951C23.474 48.7523 23.2803 48.9316 24.8206 49.7841C25.1306 49.9633 25.4406 50.157 25.7651 50.312ZM21.4978 47.2944C23.6726 48.0984 21.4881 45.7637 20.4951 45.8994C20.0543 45.1341 18.8095 44.6497 19.6862 44.238C18.1071 44.7853 18.0296 42.1551 17.2885 42.5281C15.6174 42.0001 16.6395 40.1305 14.6487 38.9825C14.4695 37.7716 12.6724 36.7253 12.1009 34.8992C11.849 33.9644 10.0714 31.2858 11.1612 33.7803C12.0912 36.1828 13.7235 38.2414 15.0846 40.2951C16.1406 42.252 17.3903 44.2961 19.3084 45.5167C19.9574 46.1464 20.5823 47.1006 21.4978 47.2944V47.2944ZM15.2348 40.4211C15.3123 40.0917 15.632 41.1283 15.2348 40.4211V40.4211ZM24.0989 48.2583C24.5832 48.0451 23.4062 47.987 24.0989 48.2583V48.2583ZM25.2807 48.6894C25.1596 48.0936 24.7431 49.0236 25.2807 48.6894V48.6894ZM26.7581 49.3045C27.4604 48.6361 25.6731 48.8831 26.7581 49.3045V49.3045ZM29.2865 50.7141C29.7176 50.0844 27.9206 50.4767 29.2865 50.7141V50.7141ZM24.4282 47.3283C25.5181 46.6211 23.0187 47.3186 24.4282 47.3283V47.3283ZM25.5374 47.8805C25.5035 47.5075 25.1403 48.0451 25.5374 47.8805V47.8805ZM31.0739 51.3341C31.9651 51.8959 36.2712 52.5644 33.5732 51.5666C33.1228 51.6634 28.5696 50.2781 31.0739 51.3341ZM22.2824 44.4898C22.1953 44.1169 20.902 44.0781 22.2824 44.4898V44.4898ZM24.8593 45.9914C25.5326 45.5264 23.4692 45.633 24.8593 45.9914V45.9914ZM27.0293 47.3234C27.9884 46.9601 25.4648 46.9601 27.0293 47.3234V47.3234ZM21.2314 43.3467C22.2776 44.1459 25.4454 43.4484 22.8298 42.8672C21.6431 42.2326 18.9596 41.8016 20.7857 43.2498L21.2314 43.3467V43.3467ZM28.497 47.7836C28.9329 47.0425 26.6709 47.3573 28.497 47.7836V47.7836ZM26.2882 46.0253C28.8409 46.747 24.1424 44.4075 25.6585 45.7589L25.9976 45.9139L26.2882 46.0253V46.0253ZM30.7154 48.5828C33.1324 48.607 28.5309 48.2534 30.7154 48.5828V48.5828ZM20.3014 41.9469C20.2093 41.4964 19.7056 41.9856 20.3014 41.9469V41.9469ZM34.8035 50.8787C34.8714 50.065 34.0189 51.4842 34.8035 50.8787V50.8787ZM24.4282 44.4753C24.2829 44.0491 23.6726 44.4559 24.4282 44.4753V44.4753ZM20.5339 41.6659C21.9192 41.5836 18.6303 41.0556 20.5339 41.6659V41.6659ZM15.9129 38.6822C15.7385 38.0137 14.4017 37.4858 15.9129 38.6822V38.6822ZM28.0368 46.3741C27.7849 46.0834 27.9157 46.437 28.0368 46.3741V46.3741ZM35.5834 51.0047C35.5592 50.5639 35.1717 51.1742 35.5834 51.0047V51.0047ZM27.3684 45.6862C27.504 45.1147 26.1865 45.5119 27.3684 45.6862V45.6862ZM21.7496 42.1212C22.7814 42.0098 20.0931 41.4237 21.7496 42.1212V42.1212ZM31.2579 48.0306C32.866 47.3912 29.6885 47.7206 31.2579 48.0306V48.0306ZM26.3124 44.6739C28.1676 44.9112 24.1037 43.4097 25.9056 44.5383L26.3124 44.6739ZM32.7595 48.6409C34.4935 47.6044 33.922 51.0676 35.6996 48.9316C37.4531 47.6528 34.1835 50.5155 36.3439 49.1592C37.9084 48.113 40.214 49.6533 41.672 50.157C42.7182 50.1037 43.7403 51.0628 44.8156 50.4816C46.8839 49.9245 40.7662 49.6533 42.3695 48.6651C40.4756 49.2173 39.0757 48.0064 38.1457 46.7955C36.0193 46.3062 33.5635 45.2212 32.5028 43.337C32.0717 42.6298 33.1276 43.4387 32.1298 42.2811C30.851 41.1428 30.2117 39.8495 29.3543 38.4642C28.3274 37.9169 28.2064 36.3039 28.1046 38.4109C28.1143 37.0837 26.8646 36.1876 26.5595 36.5606C26.5546 35.2819 27.8964 35.9212 26.9567 34.9767C26.7532 33.6495 26.0896 32.2691 25.891 30.7723C25.581 30.0506 25.8474 28.5055 24.8303 30.1378C24.4621 31.867 24.7092 28.0162 25.2856 29.2853C26.0412 27.992 25.0143 28.1422 24.9707 28.3214C25.4648 27.2267 25.2807 25.6767 24.8399 26.2676C25.1015 25.11 25.2565 22.0051 24.4476 22.5573C24.9368 21.3464 25.3776 17.0161 23.2512 18.6678C22.389 18.6823 20.902 18.9778 20.1948 19.3314C22.4035 20.5472 19.972 19.7722 19.071 19.5784C18.9548 20.707 18.0635 20.2178 16.9495 20.2275C18.7271 20.4455 16.0824 22.0439 15.0653 21.4239C13.7381 22.0584 16.2084 23.6375 15.0895 24.1267C15.2251 24.863 13.0599 23.8603 13.2295 25.5605C11.9459 25.018 13.0551 27.5755 13.6945 26.7133C15.879 27.3042 15.2348 28.6556 15.2881 29.9344C14.9296 30.6803 13.5298 28.1809 14.9781 28.2972C13.8349 26.442 13.7139 27.6287 12.7693 28.4861C12.5514 28.5491 15.1864 29.7116 13.5298 30.288C14.9878 30.5156 15.0314 31.7895 15.3268 32.5936C16.2035 33.5042 16.0243 31.5861 17.0706 32.6808C16.407 31.7023 13.5589 29.9295 15.8499 30.4962C15.8354 29.513 15.4334 28.7186 16.1406 28.738C16.8381 27.4786 15.4092 31.8476 16.9785 30.2444C17.4145 30.0555 17.521 28.985 18.3009 30.3461C19.4343 31.4601 18.7126 32.2691 17.1093 31.247C17.3951 32.2206 19.2503 32.5645 18.9015 34.0855C19.2696 35.4223 19.7879 34.9283 20.2384 34.8508C20.592 36.1489 20.7906 35.1947 20.8099 34.5747C22.4278 34.9234 22.0499 35.8776 22.5537 36.5461C23.6678 37.0498 20.9601 33.1361 22.8734 35.3691C24.8884 37.1855 23.629 37.9459 21.8223 37.6553C22.9654 37.5633 23.3335 39.2005 24.7624 39.1423C26.0654 39.7623 26.9518 42.1455 24.7043 41.1525C23.9245 40.4501 21.1635 39.5831 23.4207 40.92C25.5035 41.8839 27.1553 42.4603 29.1654 43.6712C30.5992 44.6981 31.224 45.8703 31.7665 46.1028C30.5604 46.6792 28.1289 45.6426 29.9356 45.323C28.807 45.1195 27.5428 44.548 28.6229 45.9526C29.5384 46.718 31.8731 46.6405 32.2945 46.7228C31.9409 47.5026 31.3306 47.5656 32.309 47.6237C31.2192 48.2147 32.6578 48.3067 32.7595 48.6409V48.6409ZM30.5314 42.3441C29.8678 41.6514 29.6982 40.3533 30.4151 41.4819C30.7784 41.6272 31.5921 43.6034 30.5314 42.3441ZM37.7921 46.9553C38.2039 46.9262 37.8018 47.2701 37.7921 46.9553V46.9553ZM29.4851 40.6439C29.456 39.5928 29.7224 41.4528 29.4851 40.6439V40.6439ZM28.7634 39.6703C27.9254 38.0622 29.8145 40.1305 28.7634 39.6703V39.6703ZM20.0156 33.635C20.5048 33.5042 20.2578 34.473 20.0156 33.635V33.635ZM26.976 37.4083C27.2764 36.2797 27.3296 38.3576 26.976 37.4083V37.4083ZM22.0596 33.9886C21.7157 33.3637 22.7862 34.5747 22.0596 33.9886V33.9886ZM26.2785 35.34C25.489 33.572 26.8404 34.3712 26.4529 35.6306L26.2785 35.34ZM19.0032 30.4914C18.6496 29.9101 18.0684 28.2051 18.2524 27.6869C18.422 28.5345 20.0543 31.3342 19.0517 28.8445C17.9473 26.7617 20.374 29.5226 20.6259 30.0409C20.7421 30.5592 19.9429 29.9005 20.4854 31.1114C19.4973 29.7309 19.9042 31.8767 19.0032 30.4914ZM16.7557 28.9414C16.8478 27.59 17.2692 29.8666 16.7557 28.9414V28.9414ZM17.7632 29.2901C18.2476 28.2681 18.5818 30.7094 17.7632 29.2901V29.2901ZM15.3317 27.4059C14.4937 26.5728 13.8882 25.8075 15.3704 26.8876C15.942 26.9119 14.1014 25.1439 15.506 26.3258C16.9882 26.597 16.2374 28.7525 15.3317 27.4059ZM16.6104 27.372C17.0948 26.8925 16.8671 27.8467 16.6104 27.372V27.372ZM17.3951 27.6239C16.6589 26.2434 18.2912 28.2051 17.3951 27.6239V27.6239ZM15.8354 26.132C13.4039 23.9669 18.8918 27.2655 16.2326 26.5341L15.8354 26.132ZM22.8056 30.1814C21.7496 29.5517 22.5246 25.7348 22.8831 28.3456C23.9051 28.0162 22.8249 29.6922 23.5903 29.6776C23.474 30.7336 23.1301 31.1162 22.8056 30.1814ZM25.3873 31.7072C25.489 30.5544 25.6053 32.4919 25.3873 31.7072V31.7072ZM24.9368 31.2616C25.0531 30.7723 24.9514 31.8428 24.9368 31.2616V31.2616ZM16.3101 25.42C14.7456 23.2645 20.8535 27.6045 17.3128 25.9673C16.9398 25.8656 16.4942 25.8317 16.3101 25.42ZM21.2798 28.0501C21.1296 26.2337 21.6092 28.3505 21.2798 28.0501V28.0501ZM25.0482 30.472C25.3389 29.4355 25.0724 31.155 25.0482 30.472V30.472ZM16.5523 24.5966C17.4823 24.398 20.4031 26.2289 17.7196 25.1197C17.4193 24.7855 16.7848 24.9356 16.5523 24.5966ZM24.5299 28.5733C24.6268 26.7133 25.087 27.4641 24.5348 28.8397L24.5299 28.5733ZM17.2401 23.9475C17.6179 23.3905 16.2326 21.4384 17.4387 23.2451C17.9618 23.6569 18.9451 23.9378 18.0732 24.1122C19.4489 25.3231 17.7439 24.4416 17.2401 23.9475V23.9475ZM24.1376 27.992C24.3992 25.8753 24.3653 29.232 24.1376 27.992V27.992ZM16.4506 21.9955C16.7412 21.8695 16.6056 22.3781 16.4506 21.9955V21.9955ZM18.2476 23.0659C18.7126 22.0923 19.1049 24.1461 18.2476 23.0659V23.0659ZM23.319 25.885C23.319 25.512 23.4159 26.4275 23.319 25.885V25.885ZM23.0284 25.2359C22.326 23.497 23.6823 26.1562 23.0284 25.2359V25.2359ZM22.5973 24.0976C22.4762 23.3808 22.9993 24.9986 22.5973 24.0976V24.0976ZM23.2996 22.9545C22.8153 22.102 23.9099 19.2006 24.031 21.0025C23.5224 22.4023 23.8857 23.187 24.2393 21.3076C24.8981 19.8255 24.0989 24.2236 23.2996 22.9545ZM24.0214 18.6387C24.2345 18.382 24.0698 18.9536 24.0214 18.6387V18.6387ZM22.8153 42.4312C22.5295 42.1794 22.8492 42.5911 22.8153 42.4312V42.4312ZM25.3001 43.6906C26.6854 44.0491 26.6757 43.4775 25.426 43.308C24.7528 42.6831 22.6312 42.0195 24.5299 43.2305C24.6607 43.5453 25.0579 43.5356 25.3001 43.6906ZM20.3885 40.4259C21.149 40.9975 23.2609 42.0341 21.4735 40.6439C22.0742 39.9464 20.3207 39.5734 20.902 39.1036C19.4198 38.1978 19.7346 38.2801 20.7712 38.3092C18.9935 37.5148 21.0279 37.573 20.931 37.1661C20.2432 37.0305 17.5259 35.9551 19.1243 37.2533C17.4968 36.425 18.7368 37.5633 18.2428 37.4422C16.5765 36.9869 19.7249 38.7112 17.9812 38.2801C18.9354 39.0358 20.5484 40.2176 18.3832 39.0794C18.1071 39.4911 19.9381 40.1159 20.3885 40.4259V40.4259ZM22.9896 41.9226C26.1526 42.9398 21.4396 40.673 22.9896 41.9226V41.9226ZM36.3099 49.9875C36.3487 49.3578 35.874 50.5251 36.3099 49.9875V49.9875ZM37.6759 50.5639C38.4073 49.8567 37.7049 51.6925 38.8868 50.3895C38.9014 49.4595 38.8529 48.9073 37.5306 50.0408C37.1673 50.2442 37.0026 51.1016 37.6759 50.5639ZM15.9517 36.9191C15.724 36.0375 14.3774 36.0423 15.9517 36.9191V36.9191ZM17.4096 37.8781C16.8671 36.9772 15.4721 37.0644 17.4096 37.8781V37.8781ZM25.7264 42.8914C26.5401 43.6131 29.456 43.4194 26.7096 42.9786C26.3076 42.378 24.1328 42.5233 25.7264 42.8914ZM37.1576 49.9487C38.4024 48.9025 35.9467 50.4186 37.1576 49.9487V49.9487ZM39.7539 51.7361C39.7635 51.4019 39.2162 51.8814 39.7539 51.7361V51.7361ZM39.7587 51.2662C41.144 49.7986 38.417 51.3534 39.7587 51.2662V51.2662ZM12.3528 33.9111C11.1757 32.2303 11.6214 31.4747 10.4831 30.0991C10.2651 29.048 8.53104 26.6648 9.58698 29.1884C10.5509 30.6658 10.8367 32.952 12.3528 33.9111ZM39.3228 50.8012C41.8706 49.1544 38.2814 50.0844 39.3228 50.8012V50.8012ZM41.2651 51.5617C42.5439 50.467 40.461 51.3341 41.2651 51.5617V51.5617ZM15.5157 35.0591C15.8839 34.5166 14.576 34.9912 15.5157 35.0591V35.0591ZM40.8631 51.0386C42.0982 50.2442 40.5773 50.3653 40.6403 51.1112L40.8631 51.0386ZM24.1134 40.4841C24.0698 39.9464 23.4595 40.5276 24.1134 40.4841V40.4841ZM25.1499 41.0798C24.8157 40.4114 24.6414 41.1816 25.1499 41.0798V41.0798ZM42.8442 51.5762C44.4281 50.4331 41.8851 51.3583 42.5148 51.7942L42.8442 51.5762ZM42.2339 51.2856C43.5271 50.2055 40.8776 51.7651 42.2339 51.2856V51.2856ZM45.329 53.3442C46.196 52.7678 44.2779 53.1601 45.329 53.3442V53.3442ZM16.3101 34.6667C17.4678 34.9283 20.9407 37.5197 18.8918 34.8459C17.8407 34.5359 18.4704 31.9687 17.3999 32.4241C18.1168 33.6253 17.9909 34.1339 16.4796 33.3783C14.5857 32.4531 15.414 33.8336 15.787 34.2162C15.2832 34.3373 16.4603 34.657 16.3101 34.6667V34.6667ZM11.0304 30.4962C11.2387 29.6389 9.11713 25.7736 10.0278 28.5587C10.3571 29.1448 10.3232 30.2492 11.0304 30.4962ZM20.7228 36.4734C20.127 35.9745 20.6937 36.4008 20.7228 36.4734V36.4734ZM22.1904 36.8173C22.1904 35.9067 20.5678 36.4444 22.1904 36.8173V36.8173ZM34.9295 44.8434C34.6873 44.2234 33.9704 44.8337 34.9295 44.8434V44.8434ZM35.5398 45.2939C35.4526 44.9451 35.191 45.3617 35.5398 45.2939V45.2939ZM40.5918 48.4714C41.0762 48.113 39.9864 48.4278 40.5918 48.4714V48.4714ZM13.6654 31.1695C15.0556 30.6319 12.1784 30.7869 13.6654 31.1695V31.1695ZM33.8106 43.8601C33.7912 42.9592 32.9242 44.083 33.8106 43.8601V43.8601ZM13.1181 29.8908C14.0093 29.5905 12.2898 29.6922 13.1181 29.8908V29.8908ZM15.7046 31.1453C15.6901 30.8498 15.4334 31.2567 15.7046 31.1453V31.1453ZM47.2956 50.5155C48.4435 50.283 51.0592 51.1016 51.4806 50.2103C50.0856 50.1764 46.661 49.227 46.5012 50.4331L46.8064 50.4816L47.2956 50.5155V50.5155ZM16.5281 31.3536C16.5523 30.443 15.8209 31.3197 16.5281 31.3536V31.3536ZM9.7226 26.6309C9.4126 24.8969 8.54557 26.3694 9.7226 26.6309V26.6309ZM11.3453 27.0378C11.3646 26.4808 9.85823 26.5389 11.3453 27.0378V27.0378ZM12.2704 27.4931C12.004 27.28 12.0621 27.7692 12.2704 27.4931V27.4931ZM18.112 31.2373C18.3881 30.9855 17.4581 31.0533 18.112 31.2373V31.2373ZM11.6553 26.4662C11.4954 25.1536 9.77588 26.2725 11.6553 26.4662V26.4662ZM8.3276 24.3059C8.27917 23.7005 8.00307 24.5336 8.3276 24.3059V24.3059ZM8.82167 23.933C8.73932 23.2161 8.39542 24.025 8.82167 23.933V23.933ZM11.5584 25.5653C12.716 25.11 9.45135 24.6256 11.321 25.4781L11.5584 25.5653ZM48.1723 48.1808C48.9134 47.5026 47.2326 47.9725 48.1723 48.1808V48.1808ZM52.5946 50.4767C52.8901 49.6 51.8487 50.5881 52.5946 50.4767V50.4767ZM11.8345 24.1316C11.9604 23.2839 10.919 24.3011 11.8345 24.1316V24.1316ZM7.94495 21.5256C7.73667 20.3292 7.76573 18.2222 9.7662 18.9342C7.09729 19.467 11.6165 22.2522 11.0449 20.0531C12.1687 20.1064 13.2392 19.3895 12.6531 20.4794C14.8667 20.2372 16.3973 18.3191 18.5334 18.5855C20.1996 18.3626 22.016 18.198 23.8082 17.5295C25.2807 17.423 26.6999 15.8342 25.8959 14.8945C23.8857 14.725 21.7787 14.9769 19.5603 15.4176C17.0996 15.9311 14.8618 16.8998 12.377 17.3212C9.9551 17.6458 12.8614 18.2173 12.1687 18.3433C10.9045 18.7792 13.6751 19.0795 12.004 19.5397C10.9723 19.3411 9.89698 18.9875 10.3378 17.9025C8.0176 18.2028 5.97838 19.1667 7.81417 21.5256H7.94495V21.5256ZM13.5346 18.6775C14.0771 16.6722 16.4457 20.3244 14.4259 18.9439C14.1837 18.7598 13.7865 18.6145 13.5346 18.6775ZM13.6412 17.7039C14.4259 17.1226 14.0578 18.0333 13.6412 17.7039V17.7039ZM14.639 17.7233C14.7117 16.803 16.9204 18.2125 15.0023 18.0526L14.639 17.7233ZM16.0001 17.1711C16.499 16.5898 16.1454 17.6894 16.0001 17.1711V17.1711ZM16.3489 16.9386C17.1771 15.9408 21.0424 16.3041 18.2137 16.8417C17.4581 16.2701 16.8768 17.1808 16.3489 16.9386ZM21.396 16.1636C21.2701 13.4414 23.9051 17.1275 21.396 16.1636V16.1636ZM22.8298 16.1539C23.3529 14.7831 24.8642 15.6017 23.072 15.8778C23.1107 16.0231 23.0187 16.585 22.8298 16.1539ZM11.2726 23.4292C12.8371 22.4701 9.6112 22.5961 11.2726 23.4292V23.4292ZM12.4303 23.7489C12.9776 23.1676 11.2387 23.5116 12.4303 23.7489V23.7489ZM9.02026 21.3319C9.91635 20.6441 7.96432 21.0703 9.02026 21.3319V21.3319ZM55.2054 50.2248C55.2296 49.4256 54.5224 50.5833 55.2054 50.2248V50.2248ZM50.5118 47.0231C50.6474 46.1028 49.9112 47.1006 50.5118 47.0231V47.0231ZM56.4987 50.5348C57.7484 50.5397 60.2865 50.1473 57.5643 50.1473C57.1381 50.2103 55.0795 50.2006 56.4987 50.5348ZM13.4474 23.187C14.4598 23.1192 15.0314 22.073 13.2489 22.1311C10.4928 21.8453 15.6804 23.0756 12.8953 22.722C12.5223 22.9691 13.4232 23.2548 13.4474 23.187ZM14.3387 23.6375C14.2321 22.9884 14.0239 23.9814 14.3387 23.6375V23.6375ZM15.3946 20.8184C15.8306 20.2759 14.7843 20.6731 15.3946 20.8184V20.8184ZM12.0282 15.1997C13.8349 14.5845 16.3004 13.8967 17.1529 15.5C16.2859 14.4586 16.8042 13.4269 17.6228 14.9575C18.7804 16.5026 19.3617 14.2551 18.606 13.7369C19.4634 14.8025 20.4418 15.3062 19.1824 13.8047C20.5532 12.1578 16.4409 14.0226 15.506 14.0033C15.0604 14.2019 10.8657 15.0689 12.0282 15.1997ZM13.089 13.175C14.1207 12.4 16.6492 13.64 15.0265 12.4048C14.8667 12.2595 11.4664 13.3397 13.089 13.175ZM16.8429 13.33C18.049 13.3591 16.3246 11.7122 17.7584 12.4581C17.521 11.688 16.0873 11.5426 15.3849 11.2375C14.9878 11.9398 16.189 13.3397 16.8429 13.33ZM13.7478 9.91999C14.1643 9.35812 13.0164 10.2106 13.7478 9.91999V9.91999ZM15.2784 10.2881C17.2207 10.0314 14.7843 9.45499 14.886 10.2687L15.2784 10.2881ZM12.4157 8.0503C11.0498 6.26296 14.9878 8.35062 13.5976 6.48093C12.4303 5.55093 11.3065 7.52718 12.4157 8.0503ZM29.9549 17.4956C30.5798 16.3864 27.3684 15.9989 29.5335 17.1033C29.737 17.1711 29.6885 17.5731 29.9549 17.4956Z" fill="#010101"/>
</svg>
